<?xml version="1.0" encoding="UTF-8"?>
<svg version="1.1" xmlns="http://www.w3.org/2000/svg" width="512" height="512">
<path d="M0 0 C1.01790619 0.00215515 2.03581238 0.0043103 3.08456421 0.00653076 C17.69363523 0.05620146 32.02575853 0.30709809 46.375 3.3125 C47.34985352 3.51117676 48.32470703 3.70985352 49.32910156 3.91455078 C97.7109774 14.03517194 141.69928269 35.9516877 177.375 70.3125 C178.3640332 71.26068604 178.3640332 71.26068604 179.37304688 72.22802734 C188.86130305 81.37247479 197.6012044 90.66984009 205.375 101.3125 C206.23306152 102.46355017 207.09113451 103.61459177 207.94921875 104.765625 C213.98736829 112.95680614 219.34595521 121.47054105 224.375 130.3125 C224.73948242 130.94430176 225.10396484 131.57610352 225.47949219 132.22705078 C247.08534998 169.97532572 256.85198095 212.74189997 256.6875 255.9375 C256.68534485 256.95540619 256.6831897 257.97331238 256.68096924 259.02206421 C256.63129854 273.63113523 256.38040191 287.96325853 253.375 302.3125 C253.07698486 303.77478027 253.07698486 303.77478027 252.77294922 305.26660156 C242.65232806 353.6484774 220.7358123 397.63678269 186.375 433.3125 C185.74287598 433.97185547 185.11075195 434.63121094 184.45947266 435.31054688 C175.31502521 444.79880305 166.01765991 453.5387044 155.375 461.3125 C154.22394983 462.17056152 153.07290823 463.02863451 151.921875 463.88671875 C143.73224019 469.92427396 135.22961724 475.30707302 126.375 480.3125 C125.66778809 480.7146875 124.96057617 481.116875 124.23193359 481.53125 C101.09654164 494.5566741 75.92537591 503.30551461 49.9375 508.625 C49.21860596 508.77235596 48.49971191 508.91971191 47.7590332 509.0715332 C33.08339502 511.86090125 18.55831162 512.66142619 3.64770508 512.62817383 C0.70811513 512.6250221 -2.2304558 512.64854926 -5.16992188 512.67382812 C-18.54306192 512.71848737 -31.43916711 511.51301542 -44.625 509.3125 C-46.33055054 509.03031616 -46.33055054 509.03031616 -48.07055664 508.74243164 C-91.33802759 500.97044532 -132.38793216 480.98345309 -165.625 452.3125 C-166.37007813 451.67828125 -167.11515625 451.0440625 -167.8828125 450.390625 C-181.38779833 438.57948485 -194.05918743 425.82889772 -204.625 411.3125 C-205.48149066 410.16255169 -206.33826433 409.01281411 -207.1953125 407.86328125 C-213.23534209 399.67315742 -218.61867614 391.16870382 -223.625 382.3125 C-224.0271875 381.60528809 -224.429375 380.89807617 -224.84375 380.16943359 C-237.8691741 357.03404164 -246.61801461 331.86287591 -251.9375 305.875 C-252.08485596 305.15610596 -252.23221191 304.43721191 -252.3840332 303.6965332 C-255.35789088 288.05024391 -255.99800362 272.57681954 -255.9375 256.6875 C-255.93534485 255.66959381 -255.9331897 254.65168762 -255.93096924 253.60293579 C-255.88129854 238.99386477 -255.63040191 224.66174147 -252.625 210.3125 C-252.42632324 209.33764648 -252.22764648 208.36279297 -252.02294922 207.35839844 C-241.90232806 158.9765226 -219.9858123 114.98821731 -185.625 79.3125 C-184.99287598 78.65314453 -184.36075195 77.99378906 -183.70947266 77.31445312 C-174.56502521 67.82619695 -165.26765991 59.0862956 -154.625 51.3125 C-153.47394983 50.45443848 -152.32290823 49.59636549 -151.171875 48.73828125 C-142.98224019 42.70072604 -134.47961724 37.31792698 -125.625 32.3125 C-124.91778809 31.9103125 -124.21057617 31.508125 -123.48193359 31.09375 C-100.34654164 18.0683259 -75.17537591 9.31948539 -49.1875 4 C-48.46860596 3.85264404 -47.74971191 3.70528809 -47.0090332 3.5534668 C-31.36274391 0.57960912 -15.88931954 -0.06050362 0 0 Z " fill="#5663DF" transform="translate(255.625,-0.3125)"/>
<path d="M0 0 C32.34 0 64.68 0 98 0 C98 18.81 98 37.62 98 57 C102.95 57 107.9 57 113 57 C122.09400047 59.46072954 129.25591241 64.36460896 134.52283287 72.29208279 C139.70090986 81.40032621 139.84315227 89.66072378 139.74462891 99.80297852 C139.74949428 101.57013809 139.75694214 103.33729212 139.76675415 105.10443115 C139.78544862 109.87113452 139.76682815 114.63700763 139.74008989 119.40364575 C139.71732805 124.40996122 139.72568602 129.41623976 139.72958374 134.42259216 C139.73134537 142.82605425 139.70927733 151.22919234 139.67236328 159.63256836 C139.63002047 169.32685669 139.62301367 179.02067102 139.6354872 188.71503311 C139.64690405 198.06964173 139.6355494 207.42408464 139.61314011 216.77866936 C139.60388854 220.7469078 139.60208277 224.71504424 139.6063118 228.68329048 C139.61009864 233.36128076 139.59371017 238.03879342 139.56219101 242.7166748 C139.55375747 244.42619284 139.55196884 246.13575958 139.55757141 247.84528923 C139.59071408 259.77381592 138.63713994 270.56847961 130.83984375 280.2109375 C125.95813614 284.95790583 120.62430808 287.67513838 114 289 C114 299.23 114 309.46 114 320 C71.1 320 28.2 320 -16 320 C-16 309.77 -16 299.54 -16 289 C-17.98 288.67 -19.96 288.34 -22 288 C-31.05136544 283.1310773 -36.83722347 276.54441748 -40.05251312 266.81516552 C-41.03763506 262.84845807 -41.26238396 259.44949254 -41.28088379 255.36750793 C-41.28682603 254.63087077 -41.29276828 253.89423361 -41.29889059 253.13527411 C-41.31613957 250.68364159 -41.3192703 248.23220581 -41.32226562 245.78051758 C-41.33153087 244.01572254 -41.34158139 242.25093148 -41.35235596 240.48614502 C-41.37852253 235.70284995 -41.39147786 230.91961092 -41.40037727 226.1362555 C-41.40625192 223.14355553 -41.41446398 220.15087066 -41.42338562 217.15817833 C-41.45071406 207.78226255 -41.47005786 198.40638154 -41.4777894 189.03042871 C-41.48674595 178.23025176 -41.52182843 167.43058167 -41.57979059 156.63055879 C-41.62310989 148.26680694 -41.6432025 139.90319725 -41.64587164 131.53933448 C-41.64796162 126.55111299 -41.65964482 121.56336864 -41.69551086 116.57526588 C-41.72862193 111.87922505 -41.73271259 107.18401621 -41.71523285 102.48789978 C-41.7137 100.77231291 -41.72227307 99.05667991 -41.74214935 97.3412075 C-41.87892038 84.79277998 -39.82557338 75.32410088 -31.375 65.5625 C-21.86508903 56.9514464 -12.96461233 57 0 57 C0 38.19 0 19.38 0 0 Z " fill="#FE4536" transform="translate(207,96)"/>
<path d="M0 0 C7.87627205 6.75109033 7.87627205 6.75109033 10.94913006 9.75904274 C11.65176312 10.44488398 12.35439618 11.13072522 13.07832116 11.83734953 C13.82717656 12.57274691 14.57603197 13.30814428 15.34757996 14.06582642 C16.16084301 14.86130146 16.97410606 15.65677651 17.81201345 16.47635686 C20.52440288 19.13110403 23.2333912 21.78929113 25.94213867 24.44775391 C26.90333938 25.38988234 27.86463154 26.33191748 28.82601166 27.27386284 C47.55656795 45.62665989 66.21006472 64.05749191 84.83899975 82.51337624 C87.19755088 84.84962443 89.55632309 87.18564914 91.9152832 89.52148438 C92.50152504 90.10199627 93.08776689 90.68250816 93.69177363 91.28061132 C103.19466946 100.68809148 112.74050754 110.05080126 122.30322512 119.39742251 C132.13395201 129.00783342 141.91850231 138.66346624 151.66155416 148.36275995 C157.66586253 154.33730917 163.70279051 160.27435416 169.78694216 166.16759346 C173.95489939 170.21155515 178.07691787 174.29886014 182.16604676 178.42250051 C184.52556845 180.79934256 186.90301391 183.14269418 189.3280735 185.45368385 C203.46767986 198.96084103 203.46767986 198.96084103 204.3564055 205.70434713 C204.12623844 211.07518289 202.73525818 215.91071026 200.80140936 220.89939475 C199.6888432 223.81558518 198.96007753 226.80540044 198.2109375 229.83203125 C197.61323355 231.82984736 197.0012744 233.82345511 196.375 235.8125 C196.03654053 236.896521 195.69808105 237.98054199 195.34936523 239.09741211 C191.70394578 250.42598783 187.12131037 261.26640727 182 272 C181.63825684 272.76070801 181.27651367 273.52141602 180.90380859 274.30517578 C169.89658163 297.06301486 154.49835665 317.83202366 137 336 C136.36787598 336.65935547 135.73575195 337.31871094 135.08447266 337.99804688 C125.94002521 347.48630305 116.64265991 356.2262044 106 364 C104.84894983 364.85806152 103.69790823 365.71613451 102.546875 366.57421875 C94.35724019 372.61177396 85.85461724 377.99457302 77 383 C76.29278809 383.4021875 75.58557617 383.804375 74.85693359 384.21875 C51.58036808 397.32365603 26.30173824 405.98447439 0.1875 411.4375 C-0.96625122 411.68367065 -0.96625122 411.68367065 -2.14331055 411.93481445 C-4.425518 412.37709888 -6.69470282 412.70049008 -9 413 C-9.82894933 413.11912719 -10.65789865 413.23825438 -11.51196766 413.36099148 C-15.71174033 413.69342998 -18.80189448 413.71688854 -22.4824276 411.51463509 C-25.0702656 409.28966685 -27.4271129 406.94545311 -29.78588867 404.47875977 C-30.69457703 403.573284 -31.60326538 402.66780823 -32.53948975 401.7348938 C-35.01654689 399.26522782 -37.45829752 396.76318397 -39.89473891 394.25352597 C-42.45227374 391.63069422 -45.04083515 389.03884139 -47.62605286 386.44334412 C-51.95679899 382.08691702 -56.26729469 377.71131339 -60.5637207 373.32104492 C-66.63119135 367.12106577 -72.73260051 360.95537963 -78.84201849 354.79676735 C-87.46278384 346.10338074 -96.06656007 337.39320377 -104.63745117 328.65063477 C-105.91595695 327.35159966 -105.91595695 327.35159966 -107.22029114 326.02632141 C-107.98691071 325.24243042 -108.75353027 324.45853943 -109.54338074 323.65089417 C-110.21490771 322.96600198 -110.88643469 322.28110979 -111.57831097 321.57546329 C-113 320 -113 320 -113 319 C-70.43 319 -27.86 319 16 319 C16 308.77 16 298.54 16 288 C19.96 286.02 23.92 284.04 28 282 C34.4887456 276.75378015 38.02392135 269.99606884 40 262 C40.182642 259.46067358 40.26934578 256.91336803 40.28088379 254.36750793 C40.28682603 253.63087077 40.29276828 252.89423361 40.29889059 252.13527411 C40.31613957 249.68364159 40.3192703 247.23220581 40.32226562 244.78051758 C40.33153087 243.01572254 40.34158139 241.25093148 40.35235596 239.48614502 C40.37852253 234.70284995 40.39147786 229.91961092 40.40037727 225.1362555 C40.40625192 222.14355553 40.41446398 219.15087066 40.42338562 216.15817833 C40.45071406 206.78226255 40.47005786 197.40638154 40.4777894 188.03042871 C40.48674595 177.23025176 40.52182843 166.43058167 40.57979059 155.63055879 C40.62310989 147.26680694 40.6432025 138.90319725 40.64587164 130.53933448 C40.64796162 125.55111299 40.65964482 120.56336864 40.69551086 115.57526588 C40.72862193 110.87922505 40.73271259 106.18401621 40.71523285 101.48789978 C40.7137 99.77231291 40.72227307 98.05667991 40.74214935 96.3412075 C40.866369 84.94433991 39.71905311 75.4433647 31.82065582 66.54464436 C22.34610308 57.18911044 13.50566801 56.90037787 0 56 C0 37.52 0 19.04 0 0 Z " fill="#3748DA" transform="translate(305,97)"/>
<path d="M0 0 C11.22 0 22.44 0 34 0 C34 7.26 34 14.52 34 22 C28.39 22 22.78 22 17 22 C14.99704167 61.87841812 14.99704167 61.87841812 33.81982422 95.43994141 C36.81676305 98.95907921 39.20535917 102.68593472 41.5 106.6875 C41.87503662 107.3280835 42.25007324 107.96866699 42.63647461 108.62866211 C53.46489751 127.81403493 61.31386594 148.44631946 57.34765625 170.65234375 C54.17283681 181.23961715 47.30787249 189.18257969 38 195 C34.73638477 196.57901384 31.45089255 197.89142312 28 199 C27.08154297 199.29777344 27.08154297 199.29777344 26.14453125 199.6015625 C23.14479652 200.15889026 20.05106911 200 17 200 C17 217.82 17 235.64 17 254 C1.13919418 254.16043524 1.13919418 254.16043524 -5.66601562 254.1953125 C-10.29421528 254.21914554 -14.92209585 254.24721882 -19.55004883 254.30175781 C-23.28482604 254.3454913 -27.01926068 254.36919443 -30.75427437 254.37950897 C-32.17313587 254.38685143 -33.59198043 254.40118869 -35.0106945 254.42292023 C-43.24303448 254.54390859 -49.82530035 254.26450189 -57 250 C-58.30517578 249.2575 -58.30517578 249.2575 -59.63671875 248.5 C-66.77979253 243.27535175 -71.3085389 235.73681923 -73 227 C-73.10307901 224.57769142 -73.14796563 222.15273922 -73.16062927 219.72827148 C-73.16571709 218.9941976 -73.17080491 218.26012371 -73.17604691 217.50380516 C-73.19174828 215.04290319 -73.20029044 212.58203055 -73.20874023 210.12109375 C-73.21828079 208.35674352 -73.22817204 206.59239515 -73.23838806 204.82804871 C-73.26975737 199.03122168 -73.29004177 193.23438038 -73.30859375 187.4375 C-73.31189107 186.45023674 -73.31518839 185.46297348 -73.31858563 184.44579315 C-73.34937169 175.12881259 -73.37607052 165.81182873 -73.39300442 156.49481201 C-73.41489183 144.59319855 -73.45682343 132.69203731 -73.52644199 120.79060459 C-73.57376911 112.41418751 -73.59794979 104.03789204 -73.6052013 95.66134548 C-73.61014536 90.66299891 -73.62510694 85.66516217 -73.6649456 80.66696167 C-73.70197832 75.95867478 -73.71016742 71.2511854 -73.69693947 66.54277992 C-73.69699315 64.82234815 -73.70717814 63.10187953 -73.7286911 61.38158226 C-73.87895237 48.67831496 -71.97367012 39.37761049 -63.25 29.5 C-47.90651518 15.67937042 -19.29361602 20.88968072 0 21 C0 14.07 0 7.14 0 0 Z " fill="#FE7C37" transform="translate(239,132)"/>
<path d="M0 0 C3.33027603 3.33027603 5.69893661 5.73212677 8.19921875 9.484375 C8.76350586 10.32782471 9.32779297 11.17127441 9.90917969 12.0402832 C10.49602539 12.93448975 11.08287109 13.82869629 11.6875 14.75 C12.30399414 15.68739014 12.92048828 16.62478027 13.55566406 17.59057617 C15.38225792 20.38627164 17.19400724 23.19096224 19 26 C19.48227051 26.7439502 19.96454102 27.48790039 20.46142578 28.25439453 C33.93211581 49.23806255 44.87732639 73.29161574 40.34765625 98.65234375 C37.17283681 109.23961715 30.30787249 117.18257969 21 123 C10.48618521 128.08683098 -0.94178265 130.06312568 -12.40234375 127.12890625 C-23.66149112 122.70929242 -32.81927024 115.26250734 -38.3203125 104.390625 C-42.69469032 93.3170252 -42.84730595 80.6700435 -38.625 69.5625 C-37.49638266 66.99899523 -36.26293873 64.49961712 -35 62 C-34.64615234 61.27731934 -34.29230469 60.55463867 -33.92773438 59.81005859 C-29.27974579 50.36356366 -24.09449107 41.29169565 -18.5 32.375 C-17.98356934 31.5509668 -17.46713867 30.72693359 -16.93505859 29.87792969 C-13.25677124 24.12838562 -13.25677124 24.12838562 -11 23 C-6.05 32.405 -6.05 32.405 -1 42 C-0.67 28.14 -0.34 14.28 0 0 Z " fill="#FEAC37" transform="translate(256,204)"/>
<path d="M0 0 C0 10.23 0 20.46 0 31 C-42.9 31 -85.8 31 -130 31 C-130 21.1 -130 11.2 -130 1 C-113.34541449 0.86953364 -96.69082848 0.73913173 -80.03624153 0.60884857 C-72.30362032 0.54835683 -64.57099935 0.48783573 -56.83837891 0.42724609 C-50.10038481 0.37445001 -43.36239029 0.32170844 -36.62439525 0.26903296 C-33.05510926 0.2411275 -29.4858235 0.21319433 -25.91653824 0.18519592 C-21.93670975 0.15397813 -17.95688031 0.12288202 -13.97705078 0.09179688 C-12.7873468 0.08244614 -11.59764282 0.0730954 -10.37188721 0.0634613 C-9.29212616 0.05504715 -8.21236511 0.046633 -7.09988403 0.03796387 C-5.68677539 0.02690235 -5.68677539 0.02690235 -4.24511909 0.01561737 C-2.83010406 0.00577432 -1.41504927 0 0 0 Z " fill="#FB4437" transform="translate(321,385)"/>
<path d="M0 0 C32.34 0 64.68 0 98 0 C98 18.81 98 37.62 98 57 C97.67 57 97.34 57 97 57 C97 38.52 97 20.04 97 1 C81.16 1 65.32 1 49 1 C49 7.6 49 14.2 49 21 C58.24 21 67.48 21 77 21 C77 25.95 77 30.9 77 36 C62.15 36 47.3 36 32 36 C32 42.93 32 49.86 32 57 C-1.87234043 58.19148936 -1.87234043 58.19148936 -15 58 C-15 57.67 -15 57.34 -15 57 C-10.05 57 -5.1 57 0 57 C0 38.19 0 19.38 0 0 Z " fill="#F5453C" transform="translate(207,96)"/>
<path d="M0 0 C7.59682619 8.93140377 13.64744477 20.05952871 12.98046875 32.02734375 C11.70752967 38.75573602 7.58343852 44.48745074 3.9765625 50.1796875 C1.05638596 54.79315434 -1.34876075 59.54211986 -3.625 64.5 C-3.955 65.2120459 -4.285 65.9240918 -4.625 66.65771484 C-7.67419536 73.32457201 -9.71735331 79.24069799 -7.12890625 86.4140625 C-4.05510986 92.44071903 -0.2775559 96.57414803 6.2265625 98.7421875 C8.13375474 99.23414875 10.06606159 99.62678382 12 100 C12 101.65 12 103.3 12 105 C1.26136225 105.89488648 -7.79977309 101.81506886 -15.96875 94.93359375 C-24.71174123 86.61093864 -28.91130047 77.56978148 -29.57299805 65.5 C-29.79412195 55.66673409 -27.40989253 47.72809 -23 39 C-22.64615234 38.27731934 -22.29230469 37.55463867 -21.92773438 36.81005859 C-7.51223338 7.51223338 -7.51223338 7.51223338 0 0 Z " fill="#FFD228" transform="translate(244,227)"/>
<path d="M0 0 C15.84 0 31.68 0 48 0 C48 18.48 48 36.96 48 56 C37.77 56 27.54 56 17 56 C17 49.07 17 42.14 17 35 C20.63 35 24.26 35 28 35 C28 30.05 28 25.1 28 20 C18.76 20 9.52 20 0 20 C0 13.4 0 6.8 0 0 Z " fill="#EC2605" transform="translate(256,97)"/>
<path d="M0 0 C0 9.9 0 19.8 0 30 C-21.45 30 -42.9 30 -65 30 C-65 20.43 -65 10.86 -65 1 C-49.35756436 0.75043408 -49.35756436 0.75043408 -42.703125 0.64453125 C-38.15787614 0.57219448 -33.61262785 0.49982267 -29.06738281 0.42724609 C-25.40399771 0.36875285 -21.74061019 0.31041349 -18.07722092 0.25218201 C-16.67774747 0.22990937 -15.27827491 0.20758075 -13.87880325 0.18519592 C-11.92262248 0.15391587 -9.96643827 0.12285114 -8.01025391 0.09179688 C-6.33813339 0.06514954 -6.33813339 0.06514954 -4.63223267 0.03796387 C-3.08826383 0.01569569 -1.54412941 0 0 0 Z " fill="#EE2605" transform="translate(321,385)"/>
<path d="M0 0 C0.66 0 1.32 0 2 0 C3.10986328 1.47436523 3.10986328 1.47436523 4.3203125 3.55859375 C4.76971191 4.32945312 5.21911133 5.1003125 5.68212891 5.89453125 C6.15827637 6.73371094 6.63442383 7.57289063 7.125 8.4375 C7.61274902 9.28828125 8.10049805 10.1390625 8.60302734 11.015625 C23.49248358 37.3513812 23.49248358 37.3513812 22 48 C19.8854598 53.50131413 17.03372547 57.80788141 12 61 C11.113125 61.5775 10.22625 62.155 9.3125 62.75 C3.36755702 64.99337471 -2.47702846 65.01144177 -8.3125 62.375 C-13.99336781 59.12224505 -17.71925783 54.12199214 -20 48 C-22.77710776 32.7106485 -8.69054483 14.04329331 -1.11328125 1.42480469 C-0.56220703 0.71952637 -0.56220703 0.71952637 0 0 Z " fill="#FE4735" transform="translate(255,263)"/>
<path d="M0 0 C4.51005693 5.63757116 4.51005693 5.63757116 6.11328125 8.4609375 C6.47099609 9.09040283 6.82871094 9.71986816 7.19726562 10.3684082 C7.56529297 11.0305835 7.93332031 11.69275879 8.3125 12.375 C8.69986328 13.06746826 9.08722656 13.75993652 9.48632812 14.47338867 C22.41517744 37.90294749 22.41517744 37.90294749 21 48 C18.88179722 53.51084292 16.02814933 57.77682735 11 61 C10.38125 61.4125 9.7625 61.825 9.125 62.25 C7 63 7 63 0 63 C0 42.21 0 21.42 0 0 Z " fill="#EE2705" transform="translate(256,263)"/>
<path d="M0 0 C18.48 0 36.96 0 56 0 C56 4.95 56 9.9 56 15 C37.52 15 19.04 15 0 15 C0 10.05 0 5.1 0 0 Z " fill="#3B3B3B" transform="translate(228,117)"/>
<path d="M0 0 C11.22 0 22.44 0 34 0 C34 6.93 34 13.86 34 21 C22.78 21 11.56 21 0 21 C0 14.07 0 7.14 0 0 Z " fill="#D9D7EE" transform="translate(239,132)"/>
<path d="M0 0 C9.24 0 18.48 0 28 0 C28 4.95 28 9.9 28 15 C18.76 15 9.52 15 0 15 C0 10.05 0 5.1 0 0 Z " fill="#585858" transform="translate(228,117)"/>
<path d="M0 0 C5.28 0 10.56 0 16 0 C16 6.6 16 13.2 16 20 C10.72 20 5.44 20 0 20 C0 13.4 0 6.8 0 0 Z " fill="#FFFFFF" transform="translate(240,133)"/>
<path d="M0 0 C4.455 0.99 4.455 0.99 9 2 C9 4.31 9 6.62 9 9 C7.87105124 8.06725891 6.74699124 7.12859878 5.625 6.1875 C4.99851563 5.66542969 4.37203125 5.14335937 3.7265625 4.60546875 C2 3 2 3 0 0 Z " fill="#404AD5" transform="translate(182,383)"/>
</svg>
